<svg xmlns="http://www.w3.org/2000/svg" viewBox="0 0 742.74 152.94">
  <defs>
    <style>
      .cls-1{fill:#00d3e4;}
      .cls-2{fill:#0076be;}
      .cls-3{fill:#00355f;}
      .cls-4{fill:#FFFFFF;}
    </style>
  </defs>
  <title>naativ-logo</title>
    <g id="Layer_2" data-name="Layer 2">
      <g id="Layer_1-2" data-name="Layer 1">
        <path class="cls-1" d="M112.5,35.73H95.43c-32.48,0-59.79,26.57-59.56,59a58.21,58.21,0,0,0,4.72,22.64H2a2,2,0,0,1-2-2V59.68C0,27.24,26,.3,58.43.2A58.66,58.66,0,0,1,112.5,35.73Z"/>
        <path class="cls-2" d="M117.22,58.8a58.62,58.62,0,0,1-58.61,58.61h-18A58.63,58.63,0,0,1,94.48,35.73h18A58.3,58.3,0,0,1,117.22,58.8Z"/>
        <path class="cls-3" d="M151.08,35.73a2,2,0,0,1,2,2V94.34A58.62,58.62,0,0,1,40.59,117.41h18A58.63,58.63,0,0,0,112.5,35.73Z"/>
        <path class="cls-2" d="M608.89,21.74V11.06A11.06,11.06,0,1,1,620,22.12H609.26A.38.38,0,0,1,608.89,21.74Z"/>
        <path class="cls-4" d="M267.28,85.88c0-16.15-9.06-33.47-29.14-33.47-16.15,0-29.93,12.4-29.93,33.47v44.28a1,1,0,0,1-1,1h-16.7a1,1,0,0,1-1-1V37.66a1,1,0,0,1,1-1h9.43a8.26,8.26,0,0,1,8.27,8.26h0a48.3,48.3,0,0,1,29.93-10.23c26.58,0,47.84,19.09,47.84,51.19v44.28a1,1,0,0,1-1,1h-16.7a1,1,0,0,1-1-1Z"/>
        <path class="cls-4" d="M351.08,34.69A48,48,0,0,1,381,45.12v-.19a8.27,8.27,0,0,1,8.27-8.27h9.43a1,1,0,0,1,1,1v92.5a1,1,0,0,1-1,1h-9.43a8.27,8.27,0,0,1-8.27-8.27h0a48.27,48.27,0,0,1-29.93,10.24c-27,0-48.43-22-48.43-49.22S324.11,34.69,351.08,34.69Zm0,80.72C368,115.41,381,101,381,83.91c0-17.52-13.19-31.5-29.93-31.5-16.93,0-29.73,14.37-29.73,31.5C321.35,100.64,333.75,115.41,351.08,115.41Z"/>
        <path class="cls-4" d="M466.78,34.69a48,48,0,0,1,29.93,10.43v-.19A8.27,8.27,0,0,1,505,36.66h9.43a1,1,0,0,1,1,1v92.5a1,1,0,0,1-1,1H505a8.27,8.27,0,0,1-8.27-8.27h0a48.27,48.27,0,0,1-29.93,10.24c-27,0-48.43-22-48.43-49.22S439.81,34.69,466.78,34.69Zm0,80.72c16.93,0,29.93-14.37,29.93-31.5,0-17.52-13.19-31.5-29.93-31.5-16.93,0-29.73,14.37-29.73,31.5C437.05,100.64,449.45,115.41,466.78,115.41Z"/>
        <path class="cls-4" d="M540.34,12.45l16-11.1a1.41,1.41,0,0,1,2.21,1.15V36.66H584.1a1,1,0,0,1,1,1v.09a16.64,16.64,0,0,1-16.63,16.63h-10V92c0,20.48,9.65,23.63,19.1,23.63a23.84,23.84,0,0,0,4.62-.54,1,1,0,0,1,1.2.87L585,131.09a1,1,0,0,1-.76,1.08,44.48,44.48,0,0,1-8,1c-20.28,0-36.43-9.06-36.43-41.15V13.46A1.24,1.24,0,0,1,540.34,12.45Z"/>
        <path class="cls-4" d="M627.47,131.16h-16.7a1,1,0,0,1-1-1V37.66a1,1,0,0,1,1-1h16.7a1,1,0,0,1,1,1v92.5A1,1,0,0,1,627.47,131.16Z"/>
        <path class="cls-4" d="M723.84,36.66h17.9a1,1,0,0,1,.91,1.4l-40.47,92.5a1,1,0,0,1-.91.6H688a1,1,0,0,1-.91-.6l-40.47-92.5a1,1,0,0,1,.91-1.4h17.9a1,1,0,0,1,.92.59l28.29,64.38,28.28-64.38A1,1,0,0,1,723.84,36.66Z"/>
      </g>
    </g>
</svg>