<svg xmlns="http://www.w3.org/2000/svg" viewBox="0 0 152.74 152.94">
  <defs>
    <style>
      .cls-1{fill:#00d3e4;}
      .cls-2{fill:#0076be;}
      .cls-3{fill:#00355f;}
    </style>
  </defs>
  <title>naativ-logo</title>
    <g id="Layer_2" data-name="Layer 2">
      <g id="Layer_1-2" data-name="Layer 1">
        <path class="cls-1" d="M112.5,35.73H95.43c-32.48,0-59.79,26.57-59.56,59a58.21,58.21,0,0,0,4.72,22.64H2a2,2,0,0,1-2-2V59.68C0,27.24,26,.3,58.43.2A58.66,58.66,0,0,1,112.5,35.73Z"/>
        <path class="cls-2" d="M117.22,58.8a58.62,58.62,0,0,1-58.61,58.61h-18A58.63,58.63,0,0,1,94.48,35.73h18A58.3,58.3,0,0,1,117.22,58.8Z"/>
        <path class="cls-3" d="M151.08,35.73a2,2,0,0,1,2,2V94.34A58.62,58.62,0,0,1,40.59,117.41h18A58.63,58.63,0,0,0,112.5,35.73Z"/>
      </g>
    </g>
</svg>