<svg xmlns="http://www.w3.org/2000/svg" width="181" height="143" viewBox="0 0 181 143">
    <g fill="#AADAFF" fill-rule="evenodd">
        <circle cx="2.5" cy="2.5" r="2.5" transform="matrix(-1 0 0 1 5 0)"/>
        <circle cx="2.5" cy="17.5" r="2.5" transform="matrix(-1 0 0 1 5 0)"/>
        <circle cx="2.5" cy="33.5" r="2.5" transform="matrix(-1 0 0 1 5 0)"/>
        <circle cx="2.5" cy="48.5" r="2.5" transform="matrix(-1 0 0 1 5 0)"/>
        <circle cx="2.5" cy="63.5" r="2.5" transform="matrix(-1 0 0 1 5 0)"/>
        <circle cx="2.5" cy="79.5" r="2.5" transform="matrix(-1 0 0 1 5 0)"/>
        <circle cx="2.5" cy="94.5" r="2.5" transform="matrix(-1 0 0 1 5 0)"/>
        <circle cx="2.5" cy="110.5" r="2.5" transform="matrix(-1 0 0 1 5 0)"/>
        <circle cx="2.5" cy="125.5" r="2.5" transform="matrix(-1 0 0 1 5 0)"/>
        <circle cx="18.5" cy="2.5" r="2.5" transform="matrix(-1 0 0 1 37 0)"/>
        <circle cx="18.5" cy="17.5" r="2.5" transform="matrix(-1 0 0 1 37 0)"/>
        <circle cx="18.5" cy="33.5" r="2.5" transform="matrix(-1 0 0 1 37 0)"/>
        <circle cx="18.5" cy="48.5" r="2.5" transform="matrix(-1 0 0 1 37 0)"/>
        <circle cx="18.5" cy="63.5" r="2.5" transform="matrix(-1 0 0 1 37 0)"/>
        <circle cx="18.5" cy="79.5" r="2.5" transform="matrix(-1 0 0 1 37 0)"/>
        <circle cx="18.5" cy="94.5" r="2.5" transform="matrix(-1 0 0 1 37 0)"/>
        <circle cx="18.5" cy="110.5" r="2.5" transform="matrix(-1 0 0 1 37 0)"/>
        <circle cx="18.5" cy="125.5" r="2.5" transform="matrix(-1 0 0 1 37 0)"/>
        <circle cx="18.5" cy="140.5" r="2.5" transform="matrix(-1 0 0 1 37 0)"/>
        <circle cx="34.5" cy="2.5" r="2.5" transform="matrix(-1 0 0 1 69 0)"/>
        <circle cx="34.5" cy="17.5" r="2.5" transform="matrix(-1 0 0 1 69 0)"/>
        <circle cx="34.5" cy="33.5" r="2.5" transform="matrix(-1 0 0 1 69 0)"/>
        <circle cx="34.5" cy="48.5" r="2.5" transform="matrix(-1 0 0 1 69 0)"/>
        <circle cx="34.5" cy="63.5" r="2.5" transform="matrix(-1 0 0 1 69 0)"/>
        <circle cx="34.5" cy="79.5" r="2.5" transform="matrix(-1 0 0 1 69 0)"/>
        <circle cx="34.5" cy="94.5" r="2.5" transform="matrix(-1 0 0 1 69 0)"/>
        <circle cx="34.5" cy="110.5" r="2.5" transform="matrix(-1 0 0 1 69 0)"/>
        <circle cx="34.5" cy="125.5" r="2.5" transform="matrix(-1 0 0 1 69 0)"/>
        <circle cx="34.5" cy="140.5" r="2.5" transform="matrix(-1 0 0 1 69 0)"/>
        <circle cx="50.5" cy="2.5" r="2.5" transform="matrix(-1 0 0 1 101 0)"/>
        <circle cx="50.5" cy="17.5" r="2.5" transform="matrix(-1 0 0 1 101 0)"/>
        <circle cx="50.5" cy="33.5" r="2.5" transform="matrix(-1 0 0 1 101 0)"/>
        <circle cx="50.5" cy="48.5" r="2.5" transform="matrix(-1 0 0 1 101 0)"/>
        <circle cx="50.5" cy="63.5" r="2.5" transform="matrix(-1 0 0 1 101 0)"/>
        <circle cx="50.5" cy="79.5" r="2.5" transform="matrix(-1 0 0 1 101 0)"/>
        <circle cx="50.5" cy="94.5" r="2.5" transform="matrix(-1 0 0 1 101 0)"/>
        <circle cx="50.5" cy="110.5" r="2.5" transform="matrix(-1 0 0 1 101 0)"/>
        <circle cx="50.5" cy="125.5" r="2.5" transform="matrix(-1 0 0 1 101 0)"/>
        <circle cx="50.5" cy="140.5" r="2.5" transform="matrix(-1 0 0 1 101 0)"/>
        <circle cx="66.5" cy="2.5" r="2.5" transform="matrix(-1 0 0 1 133 0)"/>
        <circle cx="66.5" cy="17.5" r="2.5" transform="matrix(-1 0 0 1 133 0)"/>
        <circle cx="66.5" cy="33.5" r="2.5" transform="matrix(-1 0 0 1 133 0)"/>
        <circle cx="66.5" cy="48.5" r="2.5" transform="matrix(-1 0 0 1 133 0)"/>
        <circle cx="66.5" cy="63.5" r="2.5" transform="matrix(-1 0 0 1 133 0)"/>
        <circle cx="66.5" cy="79.5" r="2.5" transform="matrix(-1 0 0 1 133 0)"/>
        <circle cx="66.5" cy="94.5" r="2.5" transform="matrix(-1 0 0 1 133 0)"/>
        <circle cx="66.5" cy="110.5" r="2.5" transform="matrix(-1 0 0 1 133 0)"/>
        <circle cx="66.5" cy="125.5" r="2.5" transform="matrix(-1 0 0 1 133 0)"/>
        <circle cx="66.5" cy="140.5" r="2.5" transform="matrix(-1 0 0 1 133 0)"/>
        <circle cx="82.5" cy="2.5" r="2.5" transform="matrix(-1 0 0 1 165 0)"/>
        <circle cx="82.5" cy="17.5" r="2.5" transform="matrix(-1 0 0 1 165 0)"/>
        <circle cx="82.5" cy="33.5" r="2.5" transform="matrix(-1 0 0 1 165 0)"/>
        <circle cx="82.5" cy="48.5" r="2.5" transform="matrix(-1 0 0 1 165 0)"/>
        <circle cx="82.5" cy="63.5" r="2.5" transform="matrix(-1 0 0 1 165 0)"/>
        <circle cx="82.5" cy="79.5" r="2.5" transform="matrix(-1 0 0 1 165 0)"/>
        <circle cx="82.5" cy="94.5" r="2.5" transform="matrix(-1 0 0 1 165 0)"/>
        <circle cx="82.5" cy="110.5" r="2.5" transform="matrix(-1 0 0 1 165 0)"/>
        <circle cx="82.5" cy="125.5" r="2.5" transform="matrix(-1 0 0 1 165 0)"/>
        <circle cx="82.5" cy="140.5" r="2.5" transform="matrix(-1 0 0 1 165 0)"/>
        <circle cx="98.5" cy="2.5" r="2.5" transform="matrix(-1 0 0 1 197 0)"/>
        <circle cx="98.5" cy="17.5" r="2.5" transform="matrix(-1 0 0 1 197 0)"/>
        <circle cx="98.5" cy="33.5" r="2.5" transform="matrix(-1 0 0 1 197 0)"/>
        <circle cx="98.5" cy="48.5" r="2.5" transform="matrix(-1 0 0 1 197 0)"/>
        <circle cx="98.5" cy="63.5" r="2.5" transform="matrix(-1 0 0 1 197 0)"/>
        <circle cx="98.5" cy="79.5" r="2.5" transform="matrix(-1 0 0 1 197 0)"/>
        <circle cx="98.5" cy="94.5" r="2.5" transform="matrix(-1 0 0 1 197 0)"/>
        <circle cx="98.5" cy="110.5" r="2.5" transform="matrix(-1 0 0 1 197 0)"/>
        <circle cx="98.5" cy="125.5" r="2.5" transform="matrix(-1 0 0 1 197 0)"/>
        <circle cx="98.5" cy="140.5" r="2.5" transform="matrix(-1 0 0 1 197 0)"/>
        <circle cx="114.5" cy="2.5" r="2.5" transform="matrix(-1 0 0 1 229 0)"/>
        <circle cx="114.5" cy="17.5" r="2.5" transform="matrix(-1 0 0 1 229 0)"/>
        <circle cx="114.5" cy="33.5" r="2.5" transform="matrix(-1 0 0 1 229 0)"/>
        <circle cx="114.5" cy="48.5" r="2.5" transform="matrix(-1 0 0 1 229 0)"/>
        <circle cx="114.5" cy="63.5" r="2.5" transform="matrix(-1 0 0 1 229 0)"/>
        <circle cx="114.5" cy="79.5" r="2.5" transform="matrix(-1 0 0 1 229 0)"/>
        <circle cx="114.5" cy="94.5" r="2.5" transform="matrix(-1 0 0 1 229 0)"/>
        <circle cx="114.5" cy="110.5" r="2.5" transform="matrix(-1 0 0 1 229 0)"/>
        <circle cx="114.5" cy="125.5" r="2.5" transform="matrix(-1 0 0 1 229 0)"/>
        <circle cx="114.5" cy="140.5" r="2.5" transform="matrix(-1 0 0 1 229 0)"/>
        <circle cx="130.5" cy="2.5" r="2.5" transform="matrix(-1 0 0 1 261 0)"/>
        <circle cx="130.5" cy="17.5" r="2.5" transform="matrix(-1 0 0 1 261 0)"/>
        <circle cx="130.5" cy="33.5" r="2.5" transform="matrix(-1 0 0 1 261 0)"/>
        <circle cx="130.5" cy="48.5" r="2.5" transform="matrix(-1 0 0 1 261 0)"/>
        <circle cx="130.5" cy="63.5" r="2.5" transform="matrix(-1 0 0 1 261 0)"/>
        <circle cx="130.5" cy="79.5" r="2.5" transform="matrix(-1 0 0 1 261 0)"/>
        <circle cx="130.5" cy="94.5" r="2.5" transform="matrix(-1 0 0 1 261 0)"/>
        <circle cx="130.5" cy="110.5" r="2.5" transform="matrix(-1 0 0 1 261 0)"/>
        <circle cx="130.5" cy="125.5" r="2.5" transform="matrix(-1 0 0 1 261 0)"/>
        <circle cx="130.5" cy="140.5" r="2.5" transform="matrix(-1 0 0 1 261 0)"/>
        <circle cx="146.5" cy="2.5" r="2.5" transform="matrix(-1 0 0 1 293 0)"/>
        <circle cx="146.5" cy="17.5" r="2.5" transform="matrix(-1 0 0 1 293 0)"/>
        <circle cx="146.5" cy="33.5" r="2.5" transform="matrix(-1 0 0 1 293 0)"/>
        <circle cx="146.5" cy="48.5" r="2.5" transform="matrix(-1 0 0 1 293 0)"/>
        <circle cx="146.5" cy="63.5" r="2.5" transform="matrix(-1 0 0 1 293 0)"/>
        <circle cx="146.5" cy="79.5" r="2.5" transform="matrix(-1 0 0 1 293 0)"/>
        <circle cx="146.5" cy="94.5" r="2.5" transform="matrix(-1 0 0 1 293 0)"/>
        <circle cx="146.5" cy="110.5" r="2.5" transform="matrix(-1 0 0 1 293 0)"/>
        <circle cx="146.5" cy="125.5" r="2.5" transform="matrix(-1 0 0 1 293 0)"/>
        <circle cx="146.5" cy="140.5" r="2.5" transform="matrix(-1 0 0 1 293 0)"/>
        <circle cx="162.5" cy="2.5" r="2.5" transform="matrix(-1 0 0 1 325 0)"/>
        <circle cx="162.5" cy="17.5" r="2.5" transform="matrix(-1 0 0 1 325 0)"/>
        <circle cx="162.5" cy="33.5" r="2.5" transform="matrix(-1 0 0 1 325 0)"/>
        <circle cx="162.5" cy="48.5" r="2.5" transform="matrix(-1 0 0 1 325 0)"/>
        <circle cx="162.5" cy="63.5" r="2.5" transform="matrix(-1 0 0 1 325 0)"/>
        <circle cx="162.5" cy="79.5" r="2.5" transform="matrix(-1 0 0 1 325 0)"/>
        <circle cx="162.5" cy="94.5" r="2.5" transform="matrix(-1 0 0 1 325 0)"/>
        <circle cx="162.5" cy="110.5" r="2.5" transform="matrix(-1 0 0 1 325 0)"/>
        <circle cx="162.5" cy="125.5" r="2.5" transform="matrix(-1 0 0 1 325 0)"/>
        <circle cx="162.5" cy="140.5" r="2.5" transform="matrix(-1 0 0 1 325 0)"/>
        <circle cx="178.5" cy="2.5" r="2.5" transform="matrix(-1 0 0 1 357 0)"/>
        <circle cx="178.5" cy="17.5" r="2.5" transform="matrix(-1 0 0 1 357 0)"/>
        <circle cx="178.5" cy="33.5" r="2.5" transform="matrix(-1 0 0 1 357 0)"/>
        <circle cx="178.5" cy="48.5" r="2.5" transform="matrix(-1 0 0 1 357 0)"/>
        <circle cx="178.5" cy="63.5" r="2.5" transform="matrix(-1 0 0 1 357 0)"/>
        <circle cx="178.5" cy="79.5" r="2.5" transform="matrix(-1 0 0 1 357 0)"/>
        <circle cx="178.5" cy="94.5" r="2.5" transform="matrix(-1 0 0 1 357 0)"/>
        <circle cx="178.5" cy="110.5" r="2.5" transform="matrix(-1 0 0 1 357 0)"/>
        <circle cx="178.5" cy="125.5" r="2.5" transform="matrix(-1 0 0 1 357 0)"/>
        <circle cx="178.5" cy="140.5" r="2.5" transform="matrix(-1 0 0 1 357 0)"/>
    </g>
</svg>
