<svg xmlns="http://www.w3.org/2000/svg" width="50" height="50" viewBox="0 0 50 50">
    <g fill="none" fill-rule="evenodd">
        <path fill="#DB6D8A" d="M1.901 15.477h2.71V36.48h-2.71z"/>
        <path fill="#DB6D8A" fill-rule="nonzero" d="M24.936 46.348c-.923 0-1.823-.18-2.675-.535l-10.659-4.441a6.939 6.939 0 0 1-4.281-6.422V12.262h35.23V34.95a6.938 6.938 0 0 1-4.28 6.422l-10.66 4.44a6.92 6.92 0 0 1-2.675.536zM10.031 14.972V34.95a4.236 4.236 0 0 0 2.613 3.92l10.659 4.441c.52.217 1.07.327 1.633.327.564 0 1.113-.11 1.634-.327l10.658-4.44a4.235 4.235 0 0 0 2.613-3.921V14.972h-29.81z"/>
        <path fill="#F4B2B0" d="M24.243 3.61L2.28 14.013c-1.235.585-1.235 2.343 0 2.928l21.962 10.402a1.62 1.62 0 0 0 1.387 0L47.59 16.941c1.235-.585 1.235-2.343 0-2.928L25.63 3.61a1.62 1.62 0 0 0-1.387 0z"/>
        <path fill="#DB6D8A" fill-rule="nonzero" d="M24.936 28.854c-.437 0-.878-.099-1.273-.286L1.7 18.165A2.95 2.95 0 0 1 0 15.477a2.95 2.95 0 0 1 1.701-2.689L23.663 2.386a3.026 3.026 0 0 1 2.547 0L48.17 12.788a2.95 2.95 0 0 1 1.701 2.689 2.95 2.95 0 0 1-1.7 2.688L26.21 28.568a2.994 2.994 0 0 1-1.274.286zm0-24.045a.263.263 0 0 0-.113.026L2.862 15.238a.247.247 0 0 0-.152.239c0 .111.051.192.152.24l21.96 10.402a.266.266 0 0 0 .228 0l21.96-10.403a.247.247 0 0 0 .152-.239.247.247 0 0 0-.151-.24L25.049 4.836a.261.261 0 0 0-.113-.026z"/>
    </g>
</svg>
