<svg xmlns="http://www.w3.org/2000/svg" width="50" height="50" viewBox="0 0 50 50">
    <g fill="none" fill-rule="evenodd">
        <g fill="#DB6D8A">
            <path fill-rule="nonzero" d="M26.046 45.717H6.862A6.87 6.87 0 0 1 0 38.855V22.713a6.87 6.87 0 0 1 6.862-6.863h19.184a6.87 6.87 0 0 1 6.862 6.863v16.142a6.87 6.87 0 0 1-6.862 6.862zM6.862 18.871a3.846 3.846 0 0 0-3.84 3.842v16.142a3.846 3.846 0 0 0 3.84 3.841h19.184a3.846 3.846 0 0 0 3.84-3.841V22.713a3.846 3.846 0 0 0-3.84-3.842H6.862z"/>
            <path d="M14.34 38.305l-.11-.002a3.212 3.212 0 0 1-2.164-.95l-.064-.068L6.3 30.828l2.264-2 5.658 6.407c.046.038.09.048.112.048l10.002-11.5 2.28 1.982-10.114 11.63-.037.036a2.972 2.972 0 0 1-2.125.874z"/>
        </g>
        <path fill="#F4B2B0" d="M42.98 5.543h-2.53a2.886 2.886 0 0 0-2.886 2.886v8.01h10.832v-8.01a2.886 2.886 0 0 0-2.886-2.886h-2.53z"/>
        <path fill="#DB6D8A" fill-rule="nonzero" d="M49.907 17.949H36.054v-9.52a4.402 4.402 0 0 1 4.397-4.397h5.059a4.402 4.402 0 0 1 4.397 4.397v9.52zm-10.832-3.022h7.81V8.43c0-.758-.617-1.376-1.375-1.376h-5.06c-.758 0-1.375.618-1.375 1.376v6.498z"/>
        <path fill="#F4B2B0" d="M42.98 36.248h-5.002a.407.407 0 0 0-.333.64l5.002 7.145a.407.407 0 0 0 .666 0l5.002-7.145a.407.407 0 0 0-.333-.64H42.98z"/>
        <path fill="#DB6D8A" fill-rule="nonzero" d="M42.98 45.717a1.918 1.918 0 0 1-1.57-.817l-5.002-7.146a1.91 1.91 0 0 1-.13-1.985 1.911 1.911 0 0 1 1.7-1.032h10.004c.718 0 1.37.396 1.7 1.032a1.911 1.911 0 0 1-.129 1.985L44.551 44.9a1.92 1.92 0 0 1-1.57.817zM40.1 37.758l2.881 4.117 2.882-4.117h-5.763z"/>
        <g fill="#DB6D8A">
            <path d="M49.907 37.008h-3.021V16.4h-7.811v20.607h-3.021V13.38h13.853z"/>
        </g>
    </g>
</svg>
