<svg xmlns="http://www.w3.org/2000/svg" width="238" height="266" viewBox="0 0 238 266">
    <g fill="none" fill-rule="evenodd">
        <circle cx="119" cy="147" r="119" fill="#F2F2F2"/>
        <path fill="#FF3051" d="M56.955 147.23H194v46.545H56.955z"/>
        <path fill="#E0E0E2" d="M94.914 215.753a35.207 35.207 0 0 0 24.952 10.37l-32.322-32.348-7.318 7.317 14.688 14.661z"/>
        <path fill="#C6C5CA" fill-rule="nonzero" d="M70.503 225.425a15.445 15.445 0 0 0 3.026-17.636 15.388 15.388 0 0 0-7.318-7.317c-7.73-3.696-16.994-.427-20.69 7.304-3.695 7.73-.426 16.993 7.305 20.69a15.515 15.515 0 0 0 17.677-3.041zm-16.447-16.449a7.756 7.756 0 0 1 10.97-.001 7.757 7.757 0 1 1-10.969 10.971h-.001a7.756 7.756 0 0 1 0-10.97z"/>
        <path fill="#E0E0E2" d="M73.53 207.79l14.014-14.015 32.322-32.35a35.21 35.21 0 0 0-24.952 10.37l-14.688 14.661-7.317 7.319-6.697 6.697a15.386 15.386 0 0 1 7.317 7.317z"/>
        <path fill="#FFDAAA" d="M178.485 129.13a7.757 7.757 0 1 1-15.513 0 7.757 7.757 0 1 1 15.513 0zM152.627 103.272a7.757 7.757 0 1 1-15.513 0 7.757 7.757 0 1 1 15.513 0z"/>
        <path fill="#FFC477" d="M56.955 80H194v67.23H56.955z"/>
        <path fill="#E0E0E2" d="M73.53 179.527l9.281 9.282-7.317 7.319-9.282-9.284a15.39 15.39 0 0 0 7.317-7.317z"/>
        <path fill="#F1F2F2" d="M98.326 191.189h5.172v5.171h-5.172zM108.67 191.189h5.171v5.171h-5.172zM119.013 191.189h5.171v5.171h-5.171zM129.356 191.189h5.171v5.171h-5.171zM139.699 191.189h5.172v5.171h-5.172zM150.042 191.189h5.172v5.171h-5.172zM160.385 191.189h5.172v5.171h-5.172zM170.728 191.189h5.172v5.171h-5.172z"/>
        <path fill="#FF5023" d="M100 139.473a2.585 2.585 0 0 1-1.83-4.414l41.374-41.373a2.585 2.585 0 0 1 3.656 3.656l-41.373 41.373a2.582 2.582 0 0 1-1.827.758z"/>
        <path fill="#FF5023" fill-rule="nonzero" d="M135.728 139.473c-5.712 0-10.343-4.63-10.343-10.344 0-5.711 4.63-10.342 10.343-10.342 5.712 0 10.344 4.63 10.344 10.342 0 5.713-4.632 10.344-10.344 10.344zm0-15.515a5.172 5.172 0 1 0 .001 10.344 5.172 5.172 0 0 0 0-10.344zM105.87 113.616c-5.711 0-10.343-4.632-10.343-10.343 0-5.713 4.632-10.343 10.344-10.343 5.711 0 10.343 4.63 10.343 10.343 0 5.711-4.63 10.343-10.343 10.343zm0-15.515a5.171 5.171 0 1 0 0 10.343 5.171 5.171 0 0 0 0-10.343z"/>
        <path fill="#F1F2F2" d="M72.468 144.644h5.172v5.172h-5.172zM82.811 144.644h5.173v5.172h-5.173zM93.155 144.644h5.171v5.172h-5.171zM103.498 144.644h5.171v5.172h-5.171zM113.841 144.644h5.172v5.172h-5.172zM124.184 144.644h5.172v5.172h-5.172z"/>
        <path fill="#C6C5CA" fill-rule="nonzero" d="M48.568 162.117c-6.058 6.06-6.057 15.882.003 21.94 6.06 6.06 15.882 6.058 21.94-.002 6.058-6.058 6.058-15.88 0-21.94-6.058-6.058-15.88-6.059-21.94 0l-.003.002zm16.456 16.456a7.757 7.757 0 1 1-.001-10.97 7.756 7.756 0 0 1 0 10.97z"/>
        <path fill="#FFC52A" d="M110.391 56H119a27.891 27.891 0 0 0 19.797-8.203 27.899 27.899 0 0 0 8.203-19.8c0-3.917-.803-7.639-2.255-11.021a28.034 28.034 0 0 0-5.948-8.777A27.91 27.91 0 0 0 118.916 0C103.416.046 91 12.917 91 28.418v26.627c0 .528.427.955.955.955h18.436"/>
        <path fill="#FFF" d="M110.376 42v-2.72c6.432-5.76 10.24-10.208 10.24-13.856 0-2.4-1.312-3.84-3.552-3.84-1.728 0-3.168 1.12-4.352 2.432l-2.56-2.56c2.176-2.304 4.288-3.584 7.52-3.584 4.48 0 7.456 2.88 7.456 7.296 0 4.288-3.552 8.896-7.872 13.12 1.184-.128 2.752-.256 3.84-.256h5.152V42h-15.872z"/>
    </g>
</svg>
