<svg xmlns="http://www.w3.org/2000/svg" width="238" height="266" viewBox="0 0 238 266">
    <g fill="none" fill-rule="evenodd">
        <circle cx="119" cy="147" r="119" fill="#F2F2F2"/>
        <path fill="#FF3051" d="M194 151c0 6.474-6.118 12.054-7.714 18.032-1.65 6.18.803 14.065-2.325 19.476-3.175 5.488-11.264 7.284-15.716 11.737-4.45 4.455-6.252 12.541-11.745 15.716-5.41 3.13-13.296.674-19.476 2.325-5.97 1.596-11.55 7.714-18.024 7.714s-12.054-6.118-18.032-7.714c-6.18-1.65-14.065.803-19.476-2.325-5.488-3.175-7.284-11.264-11.737-15.716-4.455-4.45-12.541-6.252-15.716-11.745-3.13-5.41-.674-13.296-2.325-19.476C50.118 163.054 44 157.474 44 151s6.118-12.054 7.714-18.032c1.65-6.18-.803-14.065 2.325-19.476 3.175-5.488 11.25-7.284 15.716-11.737C74.22 97.3 76.007 89.214 81.5 86.04c5.41-3.13 13.296-.674 19.476-2.325C106.946 82.118 112.526 76 119 76s12.054 6.118 18.032 7.714c6.18 1.65 14.065-.803 19.476 2.325 5.488 3.175 7.284 11.25 11.737 15.716 4.455 4.465 12.541 6.252 15.716 11.745 3.13 5.41.674 13.296 2.325 19.476 1.596 5.97 7.714 11.55 7.714 18.024z"/>
        <path fill="#F1F2F2" d="M119 102.786c-1.48 0-2.679-1.2-2.679-2.679V94.75a2.679 2.679 0 0 1 5.358 0v5.357c0 1.48-1.2 2.679-2.679 2.679zM105.824 104.519a2.677 2.677 0 0 1-2.584-1.986l-1.383-5.171a2.677 2.677 0 1 1 5.172-1.388l1.388 5.176a2.677 2.677 0 0 1-2.593 3.369zM93.554 109.605a2.681 2.681 0 0 1-2.323-1.34l-2.679-4.64a2.681 2.681 0 0 1 2.318-4.034 2.68 2.68 0 0 1 2.323 1.355l2.678 4.641a2.681 2.681 0 0 1-2.317 4.018zM83.013 117.692c-.71 0-1.391-.283-1.894-.785l-3.79-3.79a2.678 2.678 0 1 1 3.788-3.788l3.79 3.79a2.678 2.678 0 0 1-1.894 4.573zM74.924 128.232a2.662 2.662 0 0 1-1.34-.358l-4.641-2.679a2.68 2.68 0 0 1-.01-4.652 2.681 2.681 0 0 1 2.688.012l4.642 2.678a2.679 2.679 0 0 1-1.34 5zM69.843 140.505c-.234 0-.467-.03-.693-.091l-5.176-1.388a2.678 2.678 0 1 1 1.388-5.171l5.171 1.385a2.678 2.678 0 0 1-.69 5.265zM168.157 140.505a2.678 2.678 0 1 1-.69-5.266l5.171-1.384a2.677 2.677 0 1 1 1.388 5.171l-5.176 1.388c-.226.06-.459.091-.693.091zM163.076 128.232a2.679 2.679 0 0 1-1.34-4.999l4.643-2.678a2.68 2.68 0 0 1 2.678 4.64l-4.642 2.679c-.406.235-.87.36-1.339.358zM154.987 117.692a2.68 2.68 0 0 1-1.894-4.573l3.79-3.79a2.678 2.678 0 1 1 3.788 3.788l-3.79 3.79a2.679 2.679 0 0 1-1.894.785zM144.446 109.605a2.678 2.678 0 0 1-2.317-4.018l2.678-4.641a2.68 2.68 0 0 1 4.653-.011c.478.833.473 1.86-.012 2.69l-2.679 4.64a2.681 2.681 0 0 1-2.323 1.34zM132.176 104.519a2.677 2.677 0 0 1-2.59-3.37l1.388-5.175a2.678 2.678 0 1 1 5.171 1.388l-1.385 5.171a2.677 2.677 0 0 1-2.584 1.986zM119 209.929c-1.48 0-2.679-1.2-2.679-2.679v-5.357a2.679 2.679 0 0 1 5.358 0v5.357c0 1.48-1.2 2.679-2.679 2.679zM104.442 208.011a2.677 2.677 0 0 1-2.587-3.373l1.385-5.171a2.677 2.677 0 0 1 5.174 1.383l-1.388 5.176a2.677 2.677 0 0 1-2.584 1.985zM133.558 208.011a2.677 2.677 0 0 1-2.584-1.985l-1.388-5.176a2.677 2.677 0 1 1 5.174-1.384l1.385 5.172a2.676 2.676 0 0 1-2.587 3.373z"/>
        <path fill="#FFDA44" d="M119 145.643c-1.48 0-2.679-1.2-2.679-2.679v-25.676l-3.463 3.463a2.679 2.679 0 0 1-3.788-3.788l8.036-8.035a2.68 2.68 0 0 1 4.572 1.894v32.142c0 1.48-1.199 2.679-2.678 2.679z"/>
        <path fill="#FFDA44" d="M127.036 145.643h-16.072a2.679 2.679 0 0 1 0-5.357h16.072a2.679 2.679 0 0 1 0 5.357zM73.464 191.179c-1.479 0-2.678-1.2-2.678-2.679v-32.143c0-1.48 1.2-2.678 2.678-2.678h16.072a2.679 2.679 0 0 1 0 5.357H76.143V188.5c0 1.48-1.2 2.679-2.679 2.679z"/>
        <path fill="#FFDA44" d="M73.464 175.107a2.679 2.679 0 0 1 0-5.357h13.393a2.679 2.679 0 0 1 0 5.357H73.464z"/>
        <path fill="#FFDA44" fill-rule="nonzero" d="M116.321 191.179a2.65 2.65 0 0 1-1.74-.647l-14.331-12.28V188.5a2.679 2.679 0 0 1-5.357 0v-32.143c0-1.48 1.2-2.678 2.678-2.678h10.715a8.036 8.036 0 0 1 8.035 8.035v5.357a8.036 8.036 0 0 1-8.035 8.036h-3.482l13.25 11.36a2.678 2.678 0 0 1-1.733 4.712zM100.25 169.75h8.036c1.479 0 2.678-1.2 2.678-2.679v-5.357c0-1.479-1.2-2.678-2.678-2.678h-8.036v10.714z"/>
        <path fill="#FFDA44" d="M140.429 191.179h-16.072c-1.48 0-2.678-1.2-2.678-2.679v-32.143c0-1.48 1.199-2.678 2.678-2.678h16.072a2.679 2.679 0 0 1 0 5.357h-13.393v26.785h13.393a2.679 2.679 0 0 1 0 5.358z"/>
        <path fill="#FFDA44" d="M137.75 175.107h-13.393a2.679 2.679 0 0 1 0-5.357h13.393a2.679 2.679 0 0 1 0 5.357zM164.536 191.179h-16.072c-1.479 0-2.678-1.2-2.678-2.679v-32.143c0-1.48 1.2-2.678 2.678-2.678h16.072a2.679 2.679 0 0 1 0 5.357h-13.393v26.785h13.393a2.679 2.679 0 0 1 0 5.358z"/>
        <path fill="#FFDA44" d="M161.857 175.107h-13.393a2.679 2.679 0 0 1 0-5.357h13.393a2.679 2.679 0 0 1 0 5.357z"/>
        <path fill="#FFC52A" d="M110.391 56H119a27.891 27.891 0 0 0 19.797-8.203 27.899 27.899 0 0 0 8.203-19.8c0-3.917-.803-7.639-2.255-11.021a28.034 28.034 0 0 0-5.948-8.777A27.91 27.91 0 0 0 118.916 0C103.416.046 91 12.917 91 28.418v26.627c0 .528.427.955.955.955h18.436"/>
        <path fill="#FFF" d="M111.624 42v-3.808h5.088V23.216h-4.288v-2.912c2.368-.448 4-1.056 5.504-1.984h3.488v19.872h4.448V42h-14.24z"/>
    </g>
</svg>
