<svg xmlns="http://www.w3.org/2000/svg" width="1080" height="431" viewBox="0 0 1080 431">
    <g fill="none" fill-rule="evenodd">
        <path fill="#FF872A" d="M13.075 240H10a9.961 9.961 0 0 1-7.07-2.93A9.964 9.964 0 0 1 0 230c0-1.4.287-2.73.805-3.937.505-1.18 1.23-2.24 2.125-3.135a9.968 9.968 0 0 1 7.1-2.928c5.536.016 9.97 4.613 9.97 10.15v9.509a.341.341 0 0 1-.341.341h-6.584"/>
        <path fill="#FFF" d="M212.075 31H209a9.961 9.961 0 0 1-7.07-2.93A9.964 9.964 0 0 1 199 21c0-1.4.287-2.73.805-3.937.505-1.18 1.23-2.24 2.125-3.135a9.968 9.968 0 0 1 7.1-2.928c5.536.016 9.97 4.613 9.97 10.15v9.509a.341.341 0 0 1-.341.341h-6.584M1070.4 121.65h2.151a6.973 6.973 0 0 0 4.95-2.051 6.975 6.975 0 0 0 2.05-4.95c0-.98-.2-1.91-.563-2.756a7.009 7.009 0 0 0-6.458-4.244c-3.874.012-6.979 3.23-6.979 7.105v6.657c0 .131.107.238.24.238h4.608"/>
        <path fill="#FFC52A" d="M752.848 20.363H755a6.973 6.973 0 0 0 4.95-2.05 6.975 6.975 0 0 0 2.05-4.95c0-.98-.2-1.91-.564-2.756a7.009 7.009 0 0 0-6.457-4.244c-3.875.011-6.979 3.23-6.979 7.105v6.656c0 .132.107.239.239.239h4.609"/>
        <path fill="#00D3E4" d="M305 6.27l5.85-5.456 31.372 33.642-5.85 5.456zM48.454 380.488l-2.588-9.66 28.012-7.505 2.588 9.66zM882 8.36l3.878-6.997 40.233 22.302-3.879 6.997z"/>
        <path fill="#FFC52A" d="M966.552 194.298l31.558-9.648 2.339 7.65-31.558 9.648z"/>
        <path fill="#FF872A" d="M811.68 370.005l21.212-25.28 6.128 5.143-21.212 25.279z"/>
        <path fill="#FFC52A" d="M151.885 327.322L169.6 347.7l-3.02 2.625-17.713-20.378zM105.433 136l25.207 9.676-1.433 3.734L104 139.734z"/>
        <path fill="#FFF" d="M958.114 416.725l25.206 9.676-1.433 3.734-25.207-9.676z"/>
    </g>
</svg>
